STARTFONT 2.1
COMMENT This font was automatically resized by bdfresize-1.4
COMMENT   mag_x = 8/10, mag_y = 1/2, blackness = 4
FONT -tomabechi-fixed-medium-r-normal--16-160-72-72-m-160-MuleTibetan-0
SIZE 16 72 72
FONTBOUNDINGBOX 16 19 0 -6
STARTPROPERTIES 22
FOUNDRY "tomabechi"
FAMILY_NAME "fixed"
WEIGHT_NAME "medium"
SLANT "r"
SETWIDTH_NAME "normal"
ADD_STYLE_NAME ""
PIXEL_SIZE 16
POINT_SIZE 160
RESOLUTION_X 72
RESOLUTION_Y 72
SPACING "m"
AVERAGE_WIDTH 160
CHARSET_REGISTRY "MuleTibetan"
CHARSET_ENCODING "0"
STRIKEOUT_ASCENT 13
STRIKEOUT_DESCENT 6
X_HEIGHT 13
COPYRIGHT "Public Domain, original design by Toru Tomabechi 1999"
WEIGHT 10
DEFAULT_CHAR 8481
FONT_ASCENT 13
FONT_DESCENT 6
ENDPROPERTIES
CHARS 265
STARTCHAR space
ENCODING 8481
SWIDTH 8800 0
DWIDTH 16 0
BBX 14 12 1 -3
BITMAP
fffc
8004
8004
8004
8004
8004
8004
8004
8004
8004
8004
fffc
ENDCHAR
STARTCHAR OM
ENCODING 8496
SWIDTH 8800 0
DWIDTH 16 0
BBX 14 15 1 -4
BITMAP
0600
0904
0618
c0e0
3300
0c00
dfcc
460c
8984
9044
8c24
8214
820c
4604
3804
ENDCHAR
STARTCHAR TIBETAN MARK GTER YIG MGO TRUNCATED A
ENCODING 8497
SWIDTH 8000 0
DWIDTH 16 0
BBX 14 16 1 -5
BITMAP
00e0
0110
04e4
0208
01f0
0000
cfc0
4600
8a00
9900
8480
8240
8220
4410
3808
0004
ENDCHAR
STARTCHAR char8498
ENCODING 8498
SWIDTH 8000 0
DWIDTH 16 0
BBX 14 17 1 -6
BITMAP
0c00
1200
4c80
2118
1e24
0018
7e00
8100
8118
8224
5f18
0080
6000
11f0
0808
0608
01f0
ENDCHAR
STARTCHAR char8499
ENCODING 8499
SWIDTH 727 0
DWIDTH 16 0
BBX 14 17 1 -6
BITMAP
0c00
1200
4c80
2118
1e24
0018
7e00
813c
8100
8218
5f24
0098
6000
11f0
0808
0608
01f0
ENDCHAR
STARTCHAR char8500
ENCODING 8500
SWIDTH 12800 0
DWIDTH 16 0
BBX 16 9 0 -1
BITMAP
007c
0082
0101
e101
18e2
e60c
11f3
0c04
03f8
ENDCHAR
STARTCHAR char8501
ENCODING 8501
SWIDTH 727 0
DWIDTH 16 0
BBX 15 9 0 -1
BITMAP
00f8
0104
0202
c202
31c4
cc18
23e6
1808
07f0
ENDCHAR
STARTCHAR char8502
ENCODING 8502
SWIDTH 727 0
DWIDTH 16 0
BBX 16 16 0 -6
BITMAP
007c
0082
0101
e101
18e2
e60c
11f3
0c04
03f8
0000
03e0
0000
01c0
0080
0080
0080
ENDCHAR
STARTCHAR char8503
ENCODING 8503
SWIDTH 16400 0
DWIDTH 16 0
BBX 15 9 1 2
BITMAP
0022
0622
092a
08aa
e0a2
10aa
092a
0622
0022
ENDCHAR
STARTCHAR TIBETAN MARK SBRUL SHAD
ENCODING 8504
SWIDTH 4400 0
DWIDTH 16 0
BBX 5 17 6 -6
BITMAP
28
68
90
68
90
68
90
00
70
20
20
20
20
20
20
20
20
ENDCHAR
STARTCHAR char8505
ENCODING 8505
SWIDTH 6400 0
DWIDTH 16 0
BBX 12 14 2 -5
BITMAP
07c0
1820
6010
8020
0e40
0180
0080
0e40
1120
00a0
0080
0040
0040
0040
ENDCHAR
STARTCHAR char8506
ENCODING 8506
SWIDTH 9200 0
DWIDTH 16 0
BBX 15 14 0 -5
BITMAP
41f0
4608
5804
8198
8060
8020
8390
8448
8028
8020
8010
8012
4006
3ffc
ENDCHAR
STARTCHAR TIBETAN MARK INTERSYLLABIC TSHEG
ENCODING 8507
SWIDTH 2800 0
DWIDTH 16 0
BBX 5 3 5 6
BITMAP
f8
70
20
ENDCHAR
STARTCHAR TIBETAN MARK SHAD
ENCODING 8509
SWIDTH 2000 0
DWIDTH 16 0
BBX 3 15 5 -6
BITMAP
e0
c0
c0
c0
c0
c0
c0
80
80
80
80
80
80
80
80
ENDCHAR
STARTCHAR TIBETAN MARK NYIS SHAD
ENCODING 8510
SWIDTH 5200 0
DWIDTH 16 0
BBX 9 15 5 -6
BITMAP
e380
c300
c300
c300
c300
c300
c300
8200
8200
8200
8200
8200
8200
8200
8200
ENDCHAR
STARTCHAR TIBETAN MARK TSHEG SHAD
ENCODING 8511
SWIDTH 2800 0
DWIDTH 16 0
BBX 3 15 5 -6
BITMAP
e0
40
00
e0
40
40
40
40
40
40
40
40
40
40
40
ENDCHAR
STARTCHAR TIBETAN MARK GNYIS TSHEG SHAD
ENCODING 8512
SWIDTH 3200 0
DWIDTH 16 0
BBX 3 15 5 -6
BITMAP
e0
40
00
e0
40
00
e0
40
40
40
40
40
40
40
40
ENDCHAR
STARTCHAR TIBETAN MARK RIN CHEN SPUNGS SHAD
ENCODING 8513
SWIDTH 3200 0
DWIDTH 16 0
BBX 5 15 4 -6
BITMAP
d8
50
00
70
20
00
70
20
20
20
20
20
20
20
20
ENDCHAR
STARTCHAR char8514
ENCODING 8514
SWIDTH 11600 0
DWIDTH 16 0
BBX 13 16 2 -6
BITMAP
0200
0200
0100
0500
3760
0f80
0000
eab8
2fa0
0000
0700
0200
0200
0200
0200
0200
ENDCHAR
STARTCHAR char8515
ENCODING 8515
SWIDTH 10400 0
DWIDTH 16 0
BBX 16 14 0 -4
BITMAP
0180
0000
07e0
0810
1008
2004
a005
a005
2004
1008
0810
07e0
0000
0180
ENDCHAR
STARTCHAR TIBETAN MARK GTER TSHEG
ENCODING 8516
SWIDTH 3600 0
DWIDTH 16 0
BBX 6 9 5 -1
BITMAP
78
cc
78
00
fc
00
78
cc
78
ENDCHAR
STARTCHAR char8517
ENCODING 8517
SWIDTH 8800 0
DWIDTH 16 0
BBX 14 15 1 -6
BITMAP
fffc
8004
fcfc
8004
bcf4
8004
fffc
c004
3c24
0394
006c
001c
000c
0004
0004
ENDCHAR
STARTCHAR char8518
ENCODING 8518
SWIDTH 842 0
DWIDTH 16 0
BBX 14 17 1 -6
BITMAP
ff00
8100
bf00
a000
bffc
8004
fefc
0280
fe80
8080
ff80
0000
fffc
0200
fffc
8004
fffc
ENDCHAR
STARTCHAR char8519
ENCODING 8519
SWIDTH 10000 0
DWIDTH 16 0
BBX 16 12 0 -3
BITMAP
0124
0a49
327e
5382
5e82
5444
6444
6448
4290
4160
ff80
8000
ENDCHAR
STARTCHAR char8520
ENCODING 8520
SWIDTH 5200 0
DWIDTH 16 0
BBX 13 10 2 -6
BITMAP
0180
0248
0228
6130
91e0
8880
4b00
3c00
2000
c000
ENDCHAR
STARTCHAR char8521
ENCODING 8521
SWIDTH 7600 0
DWIDTH 16 0
BBX 5 7 5 -6
BITMAP
f8
70
20
20
20
20
20
ENDCHAR
STARTCHAR char8522
ENCODING 8522
SWIDTH 4000 0
DWIDTH 16 0
BBX 4 4 5 4
BITMAP
60
90
90
60
ENDCHAR
STARTCHAR char8523
ENCODING 8523
SWIDTH 8800 0
DWIDTH 16 0
BBX 10 4 2 4
BITMAP
6180
9240
9240
6180
ENDCHAR
STARTCHAR char8524
ENCODING 8524
SWIDTH 727 0
DWIDTH 16 0
BBX 10 9 2 -1
BITMAP
0c00
1200
1200
0c00
0000
6180
9240
9240
6180
ENDCHAR
STARTCHAR char8525
ENCODING 8525
SWIDTH 4800 0
DWIDTH 16 0
BBX 8 7 4 1
BITMAP
c3
44
28
10
28
44
82
ENDCHAR
STARTCHAR char8526
ENCODING 8526
SWIDTH 727 0
DWIDTH 16 0
BBX 14 7 1 1
BITMAP
c384
4488
2850
1020
2850
4488
8304
ENDCHAR
STARTCHAR char8527
ENCODING 8527
SWIDTH 1407 0
DWIDTH 16 0
BBX 14 7 1 1
BITMAP
3184
4888
8450
8420
4850
3088
0104
ENDCHAR
STARTCHAR TIBETAN DIGIT ZERO
ENCODING 8528
SWIDTH 6000 0
DWIDTH 16 0
BBX 10 8 4 1
BITMAP
0e00
3180
4040
8040
8040
8080
6300
1c00
ENDCHAR
STARTCHAR TIBETAN DIGIT ONE
ENCODING 8529
SWIDTH 6000 0
DWIDTH 16 0
BBX 10 8 3 1
BITMAP
1f00
6080
8040
8040
4080
0100
0600
1800
ENDCHAR
STARTCHAR TIBETAN DIGIT TWO
ENCODING 8530
SWIDTH 6000 0
DWIDTH 16 0
BBX 10 8 3 1
BITMAP
1f00
6080
8040
0040
1c80
0300
0080
0040
ENDCHAR
STARTCHAR TIBETAN DIGIT THREE
ENCODING 8531
SWIDTH 6400 0
DWIDTH 16 0
BBX 9 8 4 1
BITMAP
3f00
c080
0f00
0080
3900
0600
0100
0080
ENDCHAR
STARTCHAR TIBETAN DIGIT FOUR
ENCODING 8532
SWIDTH 6800 0
DWIDTH 16 0
BBX 11 6 3 3
BITMAP
1800
6400
83c0
4000
3000
0fe0
ENDCHAR
STARTCHAR TIBETAN DIGIT FIVE
ENCODING 8533
SWIDTH 6000 0
DWIDTH 16 0
BBX 10 8 3 1
BITMAP
8000
8100
8100
8100
4100
4300
3c80
0040
ENDCHAR
STARTCHAR TIBETAN DIGIT SIX
ENCODING 8534
SWIDTH 7200 0
DWIDTH 16 0
BBX 12 6 2 3
BITMAP
8000
8000
4380
2240
1920
0710
ENDCHAR
STARTCHAR TIBETAN DIGIT SEVEN
ENCODING 8535
SWIDTH 727 0
DWIDTH 16 0
BBX 10 6 2 3
BITMAP
0040
0040
3840
4840
8880
8f00
ENDCHAR
STARTCHAR TIBETAN DIGIT EIGHT
ENCODING 8536
SWIDTH 6400 0
DWIDTH 16 0
BBX 11 7 3 2
BITMAP
2000
2000
4000
4000
fc00
0380
0060
ENDCHAR
STARTCHAR TIBETAN DIGIT NINE
ENCODING 8537
SWIDTH 6000 0
DWIDTH 16 0
BBX 11 7 3 2
BITMAP
1f00
6080
8300
8420
43c0
3800
0780
ENDCHAR
STARTCHAR char8538
ENCODING 8538
SWIDTH 9600 0
DWIDTH 16 0
BBX 14 10 1 -1
BITMAP
0f80
1040
2020
3fe0
e038
1024
0048
0180
0600
0800
ENDCHAR
STARTCHAR char8539
ENCODING 8539
SWIDTH 9600 0
DWIDTH 16 0
BBX 14 9 1 0
BITMAP
03c0
0c20
1020
3ff8
c044
0788
0040
0020
0010
ENDCHAR
STARTCHAR char8540
ENCODING 8540
SWIDTH 727 0
DWIDTH 16 0
BBX 14 9 1 0
BITMAP
03c0
0c20
1040
3ff8
c024
07c8
0040
0020
0010
ENDCHAR
STARTCHAR char8541
ENCODING 8541
SWIDTH 9600 0
DWIDTH 16 0
BBX 14 7 1 2
BITMAP
0400
0c00
1240
3ff8
f004
0808
07c0
ENDCHAR
STARTCHAR char8542
ENCODING 8542
SWIDTH 727 0
DWIDTH 16 0
BBX 14 8 1 1
BITMAP
2000
2040
2040
3ff8
d044
10c8
0f20
0010
ENDCHAR
STARTCHAR char8543
ENCODING 8543
SWIDTH 727 0
DWIDTH 16 0
BBX 14 6 1 3
BITMAP
8000
8000
4700
3ff8
f244
0e28
ENDCHAR
STARTCHAR char8544
ENCODING 8544
SWIDTH 727 0
DWIDTH 16 0
BBX 14 6 1 3
BITMAP
0010
0010
0e10
1ff8
e224
23c8
ENDCHAR
STARTCHAR char8545
ENCODING 8545
SWIDTH 727 0
DWIDTH 16 0
BBX 14 7 1 2
BITMAP
0800
0800
1000
3ff8
ff04
00c8
0020
ENDCHAR
STARTCHAR char8546
ENCODING 8546
SWIDTH 727 0
DWIDTH 16 0
BBX 14 7 1 2
BITMAP
07c0
1820
20c0
3ff8
d0f4
0e08
01e0
ENDCHAR
STARTCHAR char8547
ENCODING 8547
SWIDTH 727 0
DWIDTH 16 0
BBX 14 8 1 1
BITMAP
0300
0cc0
1020
3ff8
e024
2048
1980
0600
ENDCHAR
STARTCHAR char8548
ENCODING 8548
SWIDTH 4800 0
DWIDTH 16 0
BBX 7 10 4 0
BITMAP
7c
38
10
00
f8
04
02
f8
04
02
ENDCHAR
STARTCHAR TIBETAN MARK NGAS BZUNG NYI ZLA
ENCODING 8549
SWIDTH 8000 0
DWIDTH 16 0
BBX 8 6 5 -5
BITMAP
18
24
a5
99
42
3c
ENDCHAR
STARTCHAR char8550
ENCODING 8550
SWIDTH 8400 0
DWIDTH 16 0
BBX 13 13 1 -3
BITMAP
0200
0700
0200
0000
0000
4010
e038
4010
0000
0000
0200
0700
0200
ENDCHAR
STARTCHAR char8551
ENCODING 8551
SWIDTH 7600 0
DWIDTH 16 0
BBX 6 4 10 -5
BITMAP
78
cc
cc
78
ENDCHAR
STARTCHAR char8552
ENCODING 8552
SWIDTH 727 0
DWIDTH 16 0
BBX 9 6 3 3
BITMAP
0080
0080
3880
4480
8900
1e00
ENDCHAR
STARTCHAR char8553
ENCODING 8553
SWIDTH 9600 0
DWIDTH 16 0
BBX 6 3 10 6
BITMAP
3c
60
c0
ENDCHAR
STARTCHAR char8554
ENCODING 8554
SWIDTH 12800 0
DWIDTH 16 0
BBX 15 6 0 3
BITMAP
0606
0906
c8b0
20b0
1106
0e06
ENDCHAR
STARTCHAR char8555
ENCODING 8555
SWIDTH 1407 0
DWIDTH 16 0
BBX 15 6 1 3
BITMAP
c0c0
c120
1a26
1a08
c110
c0e0
ENDCHAR
STARTCHAR TIBETAN MARK ANG KHANG GYON
ENCODING 8556
SWIDTH 10000 0
DWIDTH 16 0
BBX 15 16 1 -4
BITMAP
0002
000c
0030
0fc0
1000
2000
2000
2000
2000
2000
2000
2000
2000
2000
4000
8000
ENDCHAR
STARTCHAR TIBETAN MARK ANG KHANG GYAS
ENCODING 8557
SWIDTH 727 0
DWIDTH 16 0
BBX 15 16 0 -4
BITMAP
8000
6000
1800
07e0
0010
0008
0008
0008
0008
0008
0008
0008
0008
0008
0004
0002
ENDCHAR
STARTCHAR char8558
ENCODING 8558
SWIDTH 4400 0
DWIDTH 16 0
BBX 7 9 9 -6
BITMAP
1e
20
40
80
80
80
80
80
80
ENDCHAR
STARTCHAR char8559
ENCODING 8559
SWIDTH 727 0
DWIDTH 16 0
BBX 7 9 0 -6
BITMAP
f0
08
04
02
02
02
02
02
02
ENDCHAR
STARTCHAR TIBETAN LETTER KA
ENCODING 8737
SWIDTH 7600 0
DWIDTH 16 0
BBX 13 13 2 -4
BITMAP
fff8
0618
0a18
1218
6118
8108
0088
0088
0008
0008
0008
0008
0008
ENDCHAR
STARTCHAR TIBETAN LETTER KHA
ENCODING 8738
SWIDTH 7600 0
DWIDTH 16 0
BBX 14 13 1 -4
BITMAP
7ffc
8210
8408
8408
8404
87c4
803c
8004
8000
8000
8000
8000
8000
ENDCHAR
STARTCHAR TIBETAN LETTER GA
ENCODING 8739
SWIDTH 727 0
DWIDTH 16 0
BBX 14 13 1 -4
BITMAP
fffc
210c
408c
408c
404c
7c44
03c4
0044
0004
0004
0004
0004
0004
ENDCHAR
STARTCHAR TIBETAN LETTER GHA
ENCODING 8740
SWIDTH 7600 0
DWIDTH 16 0
BBX 14 15 0 -6
BITMAP
fffc
208c
404c
4044
7e44
01c4
1ff4
0400
0800
1cf8
0304
0104
0088
0010
0060
ENDCHAR
STARTCHAR TIBETAN LETTER NGA
ENCODING 8741
SWIDTH 7200 0
DWIDTH 16 0
BBX 11 7 3 2
BITMAP
ffe0
4000
4000
8000
fe00
0180
0040
ENDCHAR
STARTCHAR TIBETAN LETTER CA
ENCODING 8742
SWIDTH 7200 0
DWIDTH 16 0
BBX 11 10 4 -1
BITMAP
ffc0
1800
0800
0c00
1380
2040
c020
2020
1840
0780
ENDCHAR
STARTCHAR TIBETAN LETTER CHA
ENCODING 8743
SWIDTH 727 0
DWIDTH 16 0
BBX 13 8 2 1
BITMAP
fff8
0600
0200
3fe0
4210
8208
4210
3de0
ENDCHAR
STARTCHAR TIBETAN LETTER JA
ENCODING 8744
SWIDTH 727 0
DWIDTH 16 0
BBX 11 8 4 1
BITMAP
ffe0
6000
4000
7f80
8000
fe00
0180
0040
ENDCHAR
STARTCHAR TIBETAN LETTER NYA
ENCODING 8746
SWIDTH 8000 0
DWIDTH 16 0
BBX 12 14 3 -5
BITMAP
3f80
c040
8080
47c0
0820
1010
2010
1010
0c20
0020
0040
0080
0300
0c00
ENDCHAR
STARTCHAR TIBETAN LETTER TTA
ENCODING 8747
SWIDTH 6800 0
DWIDTH 16 0
BBX 12 14 3 -5
BITMAP
7ff0
0030
0020
1f20
60e0
8040
8040
4000
4000
2000
1000
0800
0400
0200
ENDCHAR
STARTCHAR TIBETAN LETTER TTHA
ENCODING 8748
SWIDTH 727 0
DWIDTH 16 0
BBX 11 11 3 -2
BITMAP
ff00
80c0
c020
b020
8fc0
80c0
8020
83e0
bc00
c000
8000
ENDCHAR
STARTCHAR TIBETAN LETTER DDA
ENCODING 8749
SWIDTH 7200 0
DWIDTH 16 0
BBX 12 13 3 -4
BITMAP
7ff0
00c0
0020
0010
0010
07f0
1800
2000
2000
4000
4000
8000
8000
ENDCHAR
STARTCHAR TIBETAN LETTER DDHA
ENCODING 8750
SWIDTH 8000 0
DWIDTH 16 0
BBX 13 15 2 -6
BITMAP
7ff8
0030
0008
07f8
1800
2000
7fe0
9000
23e0
6410
1808
0408
0410
0060
0080
ENDCHAR
STARTCHAR TIBETAN LETTER NNA
ENCODING 8751
SWIDTH 7600 0
DWIDTH 16 0
BBX 13 14 2 -5
BITMAP
7ff0
0100
0200
03c0
0e30
1408
2408
2208
41f0
4000
8000
8000
8000
8000
ENDCHAR
STARTCHAR TIBETAN LETTER TA
ENCODING 8752
SWIDTH 727 0
DWIDTH 16 0
BBX 12 14 1 -5
BITMAP
ffe0
c000
4000
4f80
7060
2010
2010
0020
0020
0040
0080
0100
0200
0400
ENDCHAR
STARTCHAR TIBETAN LETTER THA
ENCODING 8753
SWIDTH 727 0
DWIDTH 16 0
BBX 11 11 3 -2
BITMAP
1fe0
6020
8060
81a0
7e20
6020
8020
f820
07a0
0060
0020
ENDCHAR
STARTCHAR TIBETAN LETTER DA
ENCODING 8754
SWIDTH 727 0
DWIDTH 16 0
BBX 12 13 1 -4
BITMAP
ffe0
3000
4000
8000
8000
fe00
0180
0040
0040
0020
0020
0010
0010
ENDCHAR
STARTCHAR TIBETAN LETTER DHA
ENCODING 8755
SWIDTH 727 0
DWIDTH 16 0
BBX 14 15 1 -6
BITMAP
fff0
6000
8000
ff00
00c0
0020
3ff0
0808
11f0
3208
0c04
0204
0018
0060
0080
ENDCHAR
STARTCHAR TIBETAN LETTER NA
ENCODING 8756
SWIDTH 727 0
DWIDTH 16 0
BBX 13 14 1 -5
BITMAP
7ff0
0400
0400
1f00
6180
8140
8120
8220
7c10
0010
0008
0008
0008
0008
ENDCHAR
STARTCHAR TIBETAN LETTER PA
ENCODING 8757
SWIDTH 727 0
DWIDTH 16 0
BBX 11 7 3 2
BITMAP
fc60
2060
4020
4020
fe20
01e0
0020
ENDCHAR
STARTCHAR TIBETAN LETTER PHA
ENCODING 8758
SWIDTH 727 0
DWIDTH 16 0
BBX 11 7 3 2
BITMAP
fc60
20e0
4120
4220
fe20
01e0
0020
ENDCHAR
STARTCHAR TIBETAN LETTER BA
ENCODING 8759
SWIDTH 727 0
DWIDTH 16 0
BBX 11 7 3 2
BITMAP
ffe0
2060
4020
4020
fe20
01e0
0020
ENDCHAR
STARTCHAR TIBETAN LETTER BHA
ENCODING 8760
SWIDTH 727 0
DWIDTH 16 0
BBX 12 15 3 -6
BITMAP
ffe0
2060
4020
4020
fe20
01e0
ff20
2000
47c0
c820
3010
0810
0820
00c0
0100
ENDCHAR
STARTCHAR TIBETAN LETTER MA
ENCODING 8761
SWIDTH 7600 0
DWIDTH 16 0
BBX 13 9 2 0
BITMAP
ff18
0c18
0408
0408
7f08
82c8
8228
8218
7c08
ENDCHAR
STARTCHAR TIBETAN LETTER TSA
ENCODING 8762
SWIDTH 727 0
DWIDTH 16 0
BBX 13 12 2 -1
BITMAP
0038
0040
ffe0
1800
0800
0c00
1380
2060
c010
2010
1820
07c0
ENDCHAR
STARTCHAR TIBETAN LETTER TSHA
ENCODING 8763
SWIDTH 727 0
DWIDTH 16 0
BBX 15 10 1 1
BITMAP
000e
0010
fff8
0600
0200
3fe0
4210
8208
4210
3de0
ENDCHAR
STARTCHAR TIBETAN LETTER DZA
ENCODING 8764
SWIDTH 727 0
DWIDTH 16 0
BBX 13 10 3 1
BITMAP
0038
0040
ffe0
6000
4000
7f80
8000
fe00
0180
0040
ENDCHAR
STARTCHAR TIBETAN LETTER DZHA
ENCODING 8765
SWIDTH 727 0
DWIDTH 16 0
BBX 13 17 3 -6
BITMAP
0038
0040
ffe0
2000
7f80
4000
ff80
0040
ffa0
2040
47c0
c820
3010
0810
0820
00c0
0100
ENDCHAR
STARTCHAR TIBETAN LETTER WA
ENCODING 8766
SWIDTH 7600 0
DWIDTH 16 0
BBX 14 11 1 -2
BITMAP
3c7c
4240
8240
8420
9ffc
1004
2004
3f04
00e4
001c
0004
ENDCHAR
STARTCHAR TIBETAN LETTER ZHA
ENCODING 8767
SWIDTH 7600 0
DWIDTH 16 0
BBX 13 13 2 -4
BITMAP
0ff8
3010
4710
8890
8860
8840
47a0
2020
0010
0010
0008
0008
0008
ENDCHAR
STARTCHAR TIBETAN LETTER ZA
ENCODING 8768
SWIDTH 727 0
DWIDTH 16 0
BBX 11 8 2 1
BITMAP
ffe0
0060
0020
7fa0
0060
3fa0
c060
0020
ENDCHAR
STARTCHAR TIBETAN LETTER -A
ENCODING 8769
SWIDTH 8000 0
DWIDTH 16 0
BBX 13 9 2 0
BITMAP
3fe0
4040
8020
8010
8010
4020
27c0
0030
0008
ENDCHAR
STARTCHAR TIBETAN LETTER YA
ENCODING 8770
SWIDTH 7200 0
DWIDTH 16 0
BBX 13 10 2 -1
BITMAP
c718
4208
4208
8208
8208
8d88
7048
0028
0018
0008
ENDCHAR
STARTCHAR TIBETAN LETTER RA
ENCODING 8771
SWIDTH 8000 0
DWIDTH 16 0
BBX 14 9 1 0
BITMAP
7ff0
0300
0080
0080
0100
3fc0
c030
0008
0004
ENDCHAR
STARTCHAR TIBETAN LETTER LA
ENCODING 8772
SWIDTH 7600 0
DWIDTH 16 0
BBX 14 10 1 -1
BITMAP
3e0c
4304
8104
8104
8104
4604
21c4
0034
000c
0004
ENDCHAR
STARTCHAR TIBETAN LETTER SHA
ENCODING 8773
SWIDTH 8000 0
DWIDTH 16 0
BBX 12 15 2 -6
BITMAP
0ff0
1830
2010
3010
1830
17f0
f010
0810
0410
0010
0010
0010
0010
0010
0010
ENDCHAR
STARTCHAR TIBETAN LETTER SSA
ENCODING 8774
SWIDTH 727 0
DWIDTH 16 0
BBX 12 15 1 -6
BITMAP
ff00
c180
8040
80c0
c180
fe80
80f0
8100
8200
8000
8000
8000
8000
8000
8000
ENDCHAR
STARTCHAR TIBETAN LETTER SA
ENCODING 8775
SWIDTH 7600 0
DWIDTH 16 0
BBX 14 10 1 -1
BITMAP
7f8c
1604
2184
4044
4024
f814
060c
010c
0004
0004
ENDCHAR
STARTCHAR TIBETAN LETTER HA
ENCODING 8776
SWIDTH 727 0
DWIDTH 16 0
BBX 13 12 1 -3
BITMAP
7f80
1000
2000
41e0
4210
fa08
0608
0108
0010
0020
0040
0080
ENDCHAR
STARTCHAR TIBETAN LETTER A
ENCODING 8777
SWIDTH 8400 0
DWIDTH 16 0
BBX 15 10 0 -1
BITMAP
c7c6
4302
4502
4c82
4242
4122
4112
220a
1c06
0002
ENDCHAR
STARTCHAR TIBETAN LETTER KSSA
ENCODING 8778
SWIDTH 8400 0
DWIDTH 16 0
BBX 14 14 0 -5
BITMAP
7ffc
060c
0a0c
3104
c104
0084
1f04
2084
4040
7080
4f40
4070
4080
4000
ENDCHAR
STARTCHAR DUMMY VOWEL A
ENCODING 8785
SWIDTH 1000 0
DWIDTH 16 0
BBX 0 0 16 -6
BITMAP
ENDCHAR
STARTCHAR TIBETAN VOWEL SIGN I
ENCODING 8787
SWIDTH 727 0
DWIDTH 16 0
BBX 11 3 2 4
BITMAP
7e00
81c0
6020
ENDCHAR
STARTCHAR TIBETAN VOWEL SIGN U
ENCODING 8789
SWIDTH 8000 0
DWIDTH 16 0
BBX 12 3 2 -4
BITMAP
80e0
7010
0fe0
ENDCHAR
STARTCHAR TIBETAN VOWEL SIGN E
ENCODING 8795
SWIDTH 7600 0
DWIDTH 16 0
BBX 11 3 3 3
BITMAP
fe00
01c0
0020
ENDCHAR
STARTCHAR TIBETAN VOWEL SIGN EE
ENCODING 8796
SWIDTH 727 0
DWIDTH 16 0
BBX 11 5 3 3
BITMAP
f800
0600
f980
07c0
0020
ENDCHAR
STARTCHAR TIBETAN VOWEL SIGN O
ENCODING 8797
SWIDTH 7600 0
DWIDTH 16 0
BBX 14 4 1 3
BITMAP
001c
e0e0
1b00
0400
ENDCHAR
STARTCHAR TIBETAN VOWEL SIGN OO
ENCODING 8798
SWIDTH 727 0
DWIDTH 16 0
BBX 14 6 1 3
BITMAP
001c
e0e0
1b1c
e4e0
1b00
0400
ENDCHAR
STARTCHAR TIBETAN SIGN RJES SU NGA RO
ENCODING 8799
SWIDTH 7600 0
DWIDTH 16 0
BBX 4 4 8 3
BITMAP
60
90
90
60
ENDCHAR
STARTCHAR TIBETAN SIGN RNAM BCAD
ENCODING 8800
SWIDTH 727 0
DWIDTH 16 0
BBX 4 10 4 -3
BITMAP
60
90
90
60
00
00
60
90
90
60
ENDCHAR
STARTCHAR TIBETAN VOWEL SIGN REVERSED I
ENCODING 8801
SWIDTH 7200 0
DWIDTH 16 0
BBX 11 3 3 4
BITMAP
1fc0
6020
80c0
ENDCHAR
STARTCHAR TIBETAN SIGN NYI ZLA NAA DA
ENCODING 8803
SWIDTH 727 0
DWIDTH 16 0
BBX 8 7 5 3
BITMAP
08
08
04
a5
99
42
3c
ENDCHAR
STARTCHAR TIBETAN SIGN SNA LDAN
ENCODING 8804
SWIDTH 727 0
DWIDTH 16 0
BBX 8 6 5 3
BITMAP
18
24
a5
99
42
3c
ENDCHAR
STARTCHAR TIBETAN MARK HALANTA
ENCODING 8805
SWIDTH 727 0
DWIDTH 16 0
BBX 10 4 3 -5
BITMAP
f800
0600
0180
0040
ENDCHAR
STARTCHAR TIBETAN SIGN PALUTA
ENCODING 8806
SWIDTH 8000 0
DWIDTH 16 0
BBX 14 15 1 -6
BITMAP
3f00
4080
8040
8040
43e0
2410
0808
0808
0608
0008
0010
0010
0010
0008
0004
ENDCHAR
STARTCHAR char8807
ENCODING 8807
SWIDTH 7600 0
DWIDTH 16 0
BBX 5 6 6 6
BITMAP
20
20
40
88
88
70
ENDCHAR
STARTCHAR char8808
ENCODING 8808
SWIDTH 7600 0
DWIDTH 16 0
BBX 1 5 8 7
BITMAP
80
80
80
80
80
ENDCHAR
STARTCHAR char8809
ENCODING 8809
SWIDTH 7600 0
DWIDTH 16 0
BBX 10 5 3 7
BITMAP
ffc0
3300
0c00
3300
ffc0
ENDCHAR
STARTCHAR char8810
ENCODING 8810
SWIDTH 7600 0
DWIDTH 16 0
BBX 11 5 3 7
BITMAP
3b80
4440
8420
8420
4440
ENDCHAR
STARTCHAR char8811
ENCODING 8811
SWIDTH 7600 0
DWIDTH 16 0
BBX 10 5 3 7
BITMAP
f3c0
9240
9240
9240
9e40
ENDCHAR
STARTCHAR char8812
ENCODING 8812
SWIDTH 7600 0
DWIDTH 16 0
BBX 13 6 2 6
BITMAP
3c30
4248
8248
8440
9fc0
4040
ENDCHAR
STARTCHAR TIBETAN SUBJOINED LETTER KA
ENCODING 8993
SWIDTH 7600 0
DWIDTH 16 0
BBX 13 8 2 1
BITMAP
fff8
0a18
3218
4108
0008
0008
0008
0008
ENDCHAR
STARTCHAR TIBETAN SUBJOINED LETTER KHA
ENCODING 8994
SWIDTH 7600 0
DWIDTH 16 0
BBX 14 7 1 2
BITMAP
3ffc
410c
8204
83e4
801c
8000
8000
ENDCHAR
STARTCHAR TIBETAN SUBJOINED LETTER GA
ENCODING 8995
SWIDTH 7200 0
DWIDTH 16 0
BBX 13 8 2 1
BITMAP
fff8
2618
4118
7c88
0388
0008
0008
0008
ENDCHAR
STARTCHAR TIBETAN SUBJOINED LETTER GHA
ENCODING 8996
SWIDTH 7200 0
DWIDTH 16 0
BBX 13 13 2 -4
BITMAP
fff8
2618
4118
7c88
0388
0008
7fe0
1000
27e0
6810
1810
0420
0040
ENDCHAR
STARTCHAR TIBETAN SUBJOINED LETTER NGA
ENCODING 8997
SWIDTH 7200 0
DWIDTH 16 0
BBX 11 5 4 4
BITMAP
ffe0
2000
4000
ff00
00c0
ENDCHAR
STARTCHAR TIBETAN SUBJOINED LETTER CA
ENCODING 8998
SWIDTH 7200 0
DWIDTH 16 0
BBX 10 5 4 4
BITMAP
ffc0
0800
7780
2040
1f80
ENDCHAR
STARTCHAR TIBETAN SUBJOINED LETTER CHA
ENCODING 8999
SWIDTH 7600 0
DWIDTH 16 0
BBX 11 5 4 4
BITMAP
ffe0
0400
7fc0
8420
7bc0
ENDCHAR
STARTCHAR TIBETAN SUBJOINED LETTER JA
ENCODING 9000
SWIDTH 7200 0
DWIDTH 16 0
BBX 12 6 3 3
BITMAP
7fe0
4000
ff80
8000
ffe0
0010
ENDCHAR
STARTCHAR TIBETAN SUBJOINED LETTER NYA
ENCODING 9002
SWIDTH 6800 0
DWIDTH 16 0
BBX 12 8 2 1
BITMAP
7f00
8080
4080
1fc0
2020
1010
0020
0040
ENDCHAR
STARTCHAR TIBETAN SUBJOINED LETTER TTA
ENCODING 9003
SWIDTH 6800 0
DWIDTH 16 0
BBX 11 6 3 3
BITMAP
ffe0
0040
7f40
8080
4080
2000
ENDCHAR
STARTCHAR TIBETAN SUBJOINED LETTER TTHA
ENCODING 9004
SWIDTH 6800 0
DWIDTH 16 0
BBX 12 7 3 2
BITMAP
ffe0
e010
9fe0
8040
8fe0
f000
8000
ENDCHAR
STARTCHAR TIBETAN SUBJOINED LETTER DDA
ENCODING 9005
SWIDTH 7200 0
DWIDTH 16 0
BBX 11 6 4 3
BITMAP
ffe0
0100
0080
0fc0
3000
4000
ENDCHAR
STARTCHAR TIBETAN SUBJOINED LETTER DDHA
ENCODING 9006
SWIDTH 727 0
DWIDTH 16 0
BBX 12 12 3 -3
BITMAP
7ff0
0080
0040
0fe0
3000
ffc0
2000
4fc0
d020
3020
0840
0080
ENDCHAR
STARTCHAR TIBETAN SUBJOINED LETTER NNA
ENCODING 9007
SWIDTH 6800 0
DWIDTH 16 0
BBX 9 7 4 2
BITMAP
ff80
0800
0f00
1880
2700
4000
8000
ENDCHAR
STARTCHAR TIBETAN SUBJOINED LETTER TA
ENCODING 9008
SWIDTH 727 0
DWIDTH 16 0
BBX 11 6 2 3
BITMAP
ffe0
4000
5fc0
2020
2040
0080
ENDCHAR
STARTCHAR TIBETAN SUBJOINED LETTER THA
ENCODING 9009
SWIDTH 727 0
DWIDTH 16 0
BBX 12 7 1 2
BITMAP
7ff0
8070
7f90
2010
7f10
00f0
0010
ENDCHAR
STARTCHAR TIBETAN SUBJOINED LETTER DA
ENCODING 9010
SWIDTH 727 0
DWIDTH 16 0
BBX 11 6 1 3
BITMAP
ffe0
1000
2000
7e00
0180
0040
ENDCHAR
STARTCHAR TIBETAN SUBJOINED LETTER DHA
ENCODING 9011
SWIDTH 727 0
DWIDTH 16 0
BBX 13 12 1 -3
BITMAP
ffe0
1000
2000
7f00
00c0
3ff0
0800
13f0
3408
0c08
0210
0020
ENDCHAR
STARTCHAR TIBETAN SUBJOINED LETTER NA
ENCODING 9012
SWIDTH 727 0
DWIDTH 16 0
BBX 9 7 3 2
BITMAP
ff80
0800
7800
8c00
7200
0100
0080
ENDCHAR
STARTCHAR TIBETAN SUBJOINED LETTER PA
ENCODING 9013
SWIDTH 7600 0
DWIDTH 16 0
BBX 12 5 2 4
BITMAP
7c30
2010
4010
ff10
00f0
ENDCHAR
STARTCHAR TIBETAN SUBJOINED LETTER PHA
ENCODING 9014
SWIDTH 727 0
DWIDTH 16 0
BBX 12 5 2 4
BITMAP
fc30
2030
4050
ff90
00f0
ENDCHAR
STARTCHAR TIBETAN SUBJOINED LETTER BA
ENCODING 9015
SWIDTH 727 0
DWIDTH 16 0
BBX 12 5 2 4
BITMAP
fff0
2010
4010
ff10
00f0
ENDCHAR
STARTCHAR TIBETAN SUBJOINED LETTER BHA
ENCODING 9016
SWIDTH 727 0
DWIDTH 16 0
BBX 12 12 2 -3
BITMAP
fff0
2010
7f10
00f0
0010
7fc0
1000
27e0
6810
1810
0420
0040
ENDCHAR
STARTCHAR TIBETAN SUBJOINED LETTER MA
ENCODING 9017
SWIDTH 7600 0
DWIDTH 16 0
BBX 13 6 2 3
BITMAP
ff18
0408
7c08
8788
7878
0008
ENDCHAR
STARTCHAR TIBETAN SUBJOINED LETTER TSA
ENCODING 9018
SWIDTH 727 0
DWIDTH 16 0
BBX 12 7 4 4
BITMAP
0030
0040
ffc0
0800
7780
2040
1f80
ENDCHAR
STARTCHAR TIBETAN SUBJOINED LETTER TSHA
ENCODING 9019
SWIDTH 727 0
DWIDTH 16 0
BBX 13 7 3 4
BITMAP
0018
0020
ffe0
0400
7fc0
8420
7bc0
ENDCHAR
STARTCHAR TIBETAN SUBJOINED LETTER DZA
ENCODING 9020
SWIDTH 727 0
DWIDTH 16 0
BBX 13 8 3 3
BITMAP
0018
0020
7fe0
4000
ff80
8000
ffe0
0010
ENDCHAR
STARTCHAR TIBETAN SUBJOINED LETTER DZHA
ENCODING 9021
SWIDTH 727 0
DWIDTH 16 0
BBX 13 15 3 -4
BITMAP
0018
0020
7fe0
4000
ff80
8000
ffe0
0010
ff80
2000
4fc0
d020
3020
0840
0080
ENDCHAR
STARTCHAR TIBETAN SUBJOINED LETTER WA
ENCODING 9022
SWIDTH 1000 0
DWIDTH 16 0
BBX 3 5 12 -5
BITMAP
20
60
a0
60
20
ENDCHAR
STARTCHAR TIBETAN SUBJOINED LETTER ZHA
ENCODING 9023
SWIDTH 7200 0
DWIDTH 16 0
BBX 11 7 4 2
BITMAP
3fe0
4040
8f40
90c0
4f40
0040
0040
ENDCHAR
STARTCHAR TIBETAN SUBJOINED LETTER ZA
ENCODING 9024
SWIDTH 727 0
DWIDTH 16 0
BBX 11 6 2 3
BITMAP
ffe0
0060
3fe0
0020
3fe0
c000
ENDCHAR
STARTCHAR TIBETAN SUBJOINED LETTER -A
ENCODING 9025
SWIDTH 727 0
DWIDTH 16 0
BBX 10 4 4 -5
BITMAP
7f80
8040
4f80
0040
ENDCHAR
STARTCHAR TIBETAN SUBJOINED LETTER YA
ENCODING 9026
SWIDTH 8000 0
DWIDTH 16 0
BBX 13 5 2 -6
BITMAP
0020
f020
4fc0
3008
0ff0
ENDCHAR
STARTCHAR TIBETAN SUBJOINED LETTER RA
ENCODING 9027
SWIDTH 8000 0
DWIDTH 16 0
BBX 12 4 2 -5
BITMAP
0010
7e10
81d0
0030
ENDCHAR
STARTCHAR TIBETAN SUBJOINED LETTER LA
ENCODING 9028
SWIDTH 7600 0
DWIDTH 16 0
BBX 13 6 2 3
BITMAP
7c18
8208
8208
4408
0fc8
0038
ENDCHAR
STARTCHAR TIBETAN SUBJOINED LETTER SHA
ENCODING 9029
SWIDTH 7600 0
DWIDTH 16 0
BBX 13 8 2 1
BITMAP
0ff8
1010
1010
2ff0
e010
1810
0010
0010
ENDCHAR
STARTCHAR TIBETAN SUBJOINED LETTER SSA
ENCODING 9030
SWIDTH 727 0
DWIDTH 16 0
BBX 13 8 2 1
BITMAP
ff80
4040
4040
7fa0
4038
40c0
4000
4000
ENDCHAR
STARTCHAR TIBETAN SUBJOINED LETTER SA
ENCODING 9031
SWIDTH 6800 0
DWIDTH 16 0
BBX 11 6 3 3
BITMAP
fc60
7860
8620
e1a0
1860
0020
ENDCHAR
STARTCHAR TIBETAN SUBJOINED LETTER HA
ENCODING 9032
SWIDTH 727 0
DWIDTH 16 0
BBX 10 7 3 2
BITMAP
fe00
6000
8f00
f080
1840
0080
0100
ENDCHAR
STARTCHAR TIBETAN SUBJOINED LETTER A
ENCODING 9033
SWIDTH 7600 0
DWIDTH 16 0
BBX 14 7 1 2
BITMAP
cfcc
470c
4884
4464
4414
380c
0004
ENDCHAR
STARTCHAR TIBETAN SUBJOINED LETTER KSSA
ENCODING 9034
SWIDTH 727 0
DWIDTH 16 0
BBX 13 9 2 0
BITMAP
fff8
0a18
3218
4108
3e08
2108
3ee8
2108
2200
ENDCHAR
STARTCHAR TIBETAN SUPERSCRIBED LETTER RA
ENCODING 9040
SWIDTH 1407 0
DWIDTH 16 0
BBX 12 3 2 6
BITMAP
fff0
0400
0400
ENDCHAR
STARTCHAR TIBETAN SUBJOINED LETTER HYA
ENCODING 9041
SWIDTH 1407 0
DWIDTH 16 0
BBX 13 8 1 1
BITMAP
7ff8
4000
87f0
f808
0470
ff80
4030
3fc0
ENDCHAR
STARTCHAR TIBETAN MARK NYI ZLA LEFT HALF
ENCODING 9042
SWIDTH 1407 0
DWIDTH 16 0
BBX 12 5 4 3
BITMAP
3f80
00f0
f000
0f80
0070
ENDCHAR
STARTCHAR TIBETAN MARK NYI ZLA RIGHT HALF
ENCODING 9043
SWIDTH 1407 0
DWIDTH 16 0
BBX 16 10 0 -1
BITMAP
0070
008c
0102
c101
30c1
0c06
c3f8
3003
0e0c
01f0
ENDCHAR
STARTCHAR KWA
ENCODING 9249
SWIDTH 727 0
DWIDTH 16 0
BBX 13 13 2 -4
BITMAP
fff8
0618
0a18
1218
6118
8108
0088
0088
0008
0018
0028
0018
0008
ENDCHAR
STARTCHAR KHWA
ENCODING 9250
SWIDTH 727 0
DWIDTH 16 0
BBX 14 13 1 -4
BITMAP
7ffc
8210
8408
8408
8404
87c4
803c
800c
8014
800c
8004
8000
8000
ENDCHAR
STARTCHAR GWA
ENCODING 9251
SWIDTH 727 0
DWIDTH 16 0
BBX 14 13 1 -4
BITMAP
fffc
210c
408c
408c
404c
7c44
03c4
0044
0004
000c
0014
000c
0004
ENDCHAR
STARTCHAR CWA
ENCODING 9252
SWIDTH 727 0
DWIDTH 16 0
BBX 11 14 4 -5
BITMAP
ffc0
1800
0800
0c00
1380
2040
c020
2020
1840
0780
0300
0500
0300
0100
ENDCHAR
STARTCHAR NYWA
ENCODING 9253
SWIDTH 727 0
DWIDTH 16 0
BBX 12 15 2 -6
BITMAP
3f80
c040
8080
47c0
0820
1010
2010
1010
0c20
0040
0080
0300
0500
0300
0100
ENDCHAR
STARTCHAR TWA
ENCODING 9254
SWIDTH 727 0
DWIDTH 16 0
BBX 12 15 2 -6
BITMAP
ffe0
c000
4000
4f80
7060
2010
2010
0020
0040
0080
0100
0600
0a00
0600
0200
ENDCHAR
STARTCHAR DWA
ENCODING 9255
SWIDTH 727 0
DWIDTH 16 0
BBX 12 15 2 -6
BITMAP
ffe0
3000
4000
8000
8000
fe00
0180
0040
0020
0020
0010
0030
0050
0030
0010
ENDCHAR
STARTCHAR TSWA
ENCODING 9256
SWIDTH 727 0
DWIDTH 16 0
BBX 12 16 4 -5
BITMAP
0030
0040
ffc0
1800
0800
0c00
1380
2040
c020
2020
1840
0780
0300
0500
0300
0100
ENDCHAR
STARTCHAR TSWA
ENCODING 9257
SWIDTH 727 0
DWIDTH 16 0
BBX 14 14 2 -3
BITMAP
000c
0010
fff0
0600
0200
3fe0
4210
8208
4210
3de0
00c0
0140
00c0
0040
ENDCHAR
STARTCHAR ZHWA
ENCODING 9258
SWIDTH 727 0
DWIDTH 16 0
BBX 13 15 2 -6
BITMAP
0ff8
3010
4710
8890
8860
8840
47a0
2020
0010
0010
0008
0018
0028
0018
0008
ENDCHAR
STARTCHAR ZWA
ENCODING 9259
SWIDTH 727 0
DWIDTH 16 0
BBX 11 11 2 -2
BITMAP
ffe0
00c0
0040
3fc0
0020
0fe0
3020
4060
00a0
0060
0020
ENDCHAR
STARTCHAR RWA
ENCODING 9260
SWIDTH 727 0
DWIDTH 16 0
BBX 14 13 1 -4
BITMAP
7ff0
0300
0080
0080
0100
3fc0
c030
0008
0004
000c
0014
000c
0004
ENDCHAR
STARTCHAR LWA
ENCODING 9261
SWIDTH 727 0
DWIDTH 16 0
BBX 14 14 1 -5
BITMAP
3e0c
4304
8104
8104
8104
4604
21c4
0034
000c
0004
000c
0014
000c
0004
ENDCHAR
STARTCHAR SHWA
ENCODING 9262
SWIDTH 727 0
DWIDTH 16 0
BBX 12 15 2 -6
BITMAP
0ff0
1830
2010
3010
1830
17f0
f010
0810
0410
0010
0010
0030
0050
0030
0010
ENDCHAR
STARTCHAR SWA
ENCODING 9263
SWIDTH 727 0
DWIDTH 16 0
BBX 14 15 1 -6
BITMAP
7f8c
1604
2184
4044
4024
f814
060c
010c
0004
0004
0004
000c
0014
000c
0004
ENDCHAR
STARTCHAR HWA
ENCODING 9264
SWIDTH 727 0
DWIDTH 16 0
BBX 13 15 1 -6
BITMAP
7f80
1000
2000
41e0
4210
fa08
0608
0108
0010
0020
0040
0180
0280
0180
0080
ENDCHAR
STARTCHAR KYA
ENCODING 9280
SWIDTH 727 0
DWIDTH 16 0
BBX 15 12 1 -3
BITMAP
fff8
0618
0a18
3218
4108
0108
0088
0008
7c3a
23c4
1818
07e0
ENDCHAR
STARTCHAR KHYA
ENCODING 9281
SWIDTH 727 0
DWIDTH 16 0
BBX 15 13 1 -4
BITMAP
7ff8
8420
8810
8808
8fc8
8038
8008
8008
be32
91c4
8c18
83e0
8000
ENDCHAR
STARTCHAR GYA
ENCODING 9282
SWIDTH 727 0
DWIDTH 16 0
BBX 16 12 0 -3
BITMAP
fffc
210c
408c
4044
7e44
01c4
0004
0004
3e19
11e2
0c0c
03f0
ENDCHAR
STARTCHAR PYA
ENCODING 9283
SWIDTH 727 0
DWIDTH 16 0
BBX 14 12 2 -3
BITMAP
7c70
1020
2020
2020
7f20
00e0
0020
0020
f844
4788
3030
0fc0
ENDCHAR
STARTCHAR PHYA
ENCODING 9284
SWIDTH 727 0
DWIDTH 16 0
BBX 14 12 2 -3
BITMAP
7c60
10e0
2120
2220
7f20
00e0
0020
0020
f844
4788
3030
0fc0
ENDCHAR
STARTCHAR BYA
ENCODING 9285
SWIDTH 727 0
DWIDTH 16 0
BBX 14 12 2 -3
BITMAP
7ff0
1020
2020
2020
7f20
00e0
0020
0020
f844
4788
3030
0fc0
ENDCHAR
STARTCHAR MYA
ENCODING 9286
SWIDTH 727 0
DWIDTH 16 0
BBX 15 12 1 -3
BITMAP
fe30
1830
0810
7e10
8590
8450
7830
0010
7c22
23c4
1818
07e0
ENDCHAR
STARTCHAR PHYWA
ENCODING 9287
SWIDTH 727 0
DWIDTH 16 0
BBX 14 15 2 -6
BITMAP
7860
20e0
2120
4220
7f20
00e0
0020
f844
4788
3030
0fc0
0180
0280
0180
0080
ENDCHAR
STARTCHAR KRA
ENCODING 9296
SWIDTH 727 0
DWIDTH 16 0
BBX 13 11 1 -2
BITMAP
fff8
0618
0a18
3218
4108
0108
0088
0008
3f08
00f8
0008
ENDCHAR
STARTCHAR KHRA
ENCODING 9297
SWIDTH 727 0
DWIDTH 16 0
BBX 13 12 1 -3
BITMAP
7ff8
8420
8810
8808
8fc8
8038
8008
8008
8008
9f88
8078
8008
ENDCHAR
STARTCHAR GRA
ENCODING 9298
SWIDTH 727 0
DWIDTH 16 0
BBX 14 11 0 -2
BITMAP
fffc
210c
408c
4044
7e44
01c4
0004
0004
1f84
007c
0004
ENDCHAR
STARTCHAR TRA
ENCODING 9299
SWIDTH 727 0
DWIDTH 16 0
BBX 13 12 1 -3
BITMAP
ffe0
c000
4000
4fc0
7020
2010
2020
0040
0080
3f00
00f0
0008
ENDCHAR
STARTCHAR THRA
ENCODING 9300
SWIDTH 727 0
DWIDTH 16 0
BBX 11 13 3 -4
BITMAP
1fe0
6020
8060
81a0
7e20
6020
8020
f820
07a0
0060
fc20
03e0
0020
ENDCHAR
STARTCHAR DRA
ENCODING 9301
SWIDTH 727 0
DWIDTH 16 0
BBX 12 12 2 -3
BITMAP
ffe0
3000
4000
8000
8000
fe00
0180
0040
0020
7e30
01f0
0010
ENDCHAR
STARTCHAR PRA
ENCODING 9302
SWIDTH 727 0
DWIDTH 16 0
BBX 11 11 3 -2
BITMAP
fc60
2060
4020
4020
fe20
01e0
0020
0020
fc20
03e0
0020
ENDCHAR
STARTCHAR PHRA
ENCODING 9303
SWIDTH 727 0
DWIDTH 16 0
BBX 11 11 3 -2
BITMAP
fc60
20e0
4120
4220
fe20
01e0
0020
0020
fc20
03e0
0020
ENDCHAR
STARTCHAR BRA
ENCODING 9304
SWIDTH 727 0
DWIDTH 16 0
BBX 11 11 3 -2
BITMAP
ffe0
2060
4020
4020
fe20
01e0
0020
0020
fc20
03e0
0020
ENDCHAR
STARTCHAR MRA
ENCODING 9305
SWIDTH 727 0
DWIDTH 16 0
BBX 12 11 2 -2
BITMAP
ff30
0c30
0410
7f10
82d0
8230
7c10
0010
7e10
01f0
0010
ENDCHAR
STARTCHAR SHRA
ENCODING 9306
SWIDTH 727 0
DWIDTH 16 0
BBX 12 12 2 -3
BITMAP
0ff0
1830
2010
3010
1830
17f0
f010
0810
0010
7e10
01f0
0010
ENDCHAR
STARTCHAR SRA
ENCODING 9307
SWIDTH 727 0
DWIDTH 16 0
BBX 13 12 1 -3
BITMAP
ff18
2c08
4308
8088
f048
0c28
0218
0018
0008
3f08
00f8
0008
ENDCHAR
STARTCHAR HRA
ENCODING 9308
SWIDTH 727 0
DWIDTH 16 0
BBX 13 12 1 -3
BITMAP
7f80
1000
2000
41e0
4210
fa08
0608
0108
0010
3f20
00f0
0008
ENDCHAR
STARTCHAR JRA
ENCODING 9309
SWIDTH 727 0
DWIDTH 16 0
BBX 11 12 3 -3
BITMAP
ffe0
6000
4000
7f80
8000
fe00
0180
0040
0020
fc20
03e0
0020
ENDCHAR
STARTCHAR DZRA
ENCODING 9310
SWIDTH 727 0
DWIDTH 16 0
BBX 13 14 3 -3
BITMAP
0038
0040
ffe0
6000
4000
7f80
8000
fe00
0180
0040
0020
fc20
03e0
0020
ENDCHAR
STARTCHAR GRWA
ENCODING 9311
SWIDTH 727 0
DWIDTH 16 0
BBX 14 14 0 -5
BITMAP
fffc
210c
408c
4084
4044
7c44
03c4
0044
1f84
007c
000c
0014
000c
0004
ENDCHAR
STARTCHAR KLA
ENCODING 9312
SWIDTH 727 0
DWIDTH 16 0
BBX 13 13 1 -4
BITMAP
fff8
0618
0a18
3208
4108
0108
0088
7c18
8218
8208
4408
0fc8
0038
ENDCHAR
STARTCHAR GLA
ENCODING 9313
SWIDTH 727 0
DWIDTH 16 0
BBX 14 13 0 -4
BITMAP
fffc
210c
408c
4044
7e44
01c4
0004
3e0c
410c
4104
2204
07e4
001c
ENDCHAR
STARTCHAR BLA
ENCODING 9314
SWIDTH 727 0
DWIDTH 16 0
BBX 13 13 1 -4
BITMAP
3ff8
0818
1008
1008
3f88
0078
0008
7c18
8218
8208
4408
0fc8
0038
ENDCHAR
STARTCHAR ZLA
ENCODING 9315
SWIDTH 727 0
DWIDTH 16 0
BBX 13 13 1 -4
BITMAP
3ff8
0018
0ff8
0008
0fe8
3018
0008
7c18
8218
8208
4408
0fc8
0038
ENDCHAR
STARTCHAR RLA
ENCODING 9316
SWIDTH 727 0
DWIDTH 16 0
BBX 14 13 1 -4
BITMAP
7ff0
0300
0080
0080
3fc0
c030
0008
7c1c
8218
8208
4408
0fc8
0038
ENDCHAR
STARTCHAR SLA
ENCODING 9317
SWIDTH 727 0
DWIDTH 16 0
BBX 13 13 1 -4
BITMAP
3f18
1e18
2188
3868
0618
0008
0008
7c18
8218
8208
4408
0fc8
0038
ENDCHAR
STARTCHAR RKA
ENCODING 9505
SWIDTH 727 0
DWIDTH 16 0
BBX 13 12 2 -3
BITMAP
7fe0
0600
0200
fff8
0618
0a18
3218
4118
0108
0088
0008
0008
ENDCHAR
STARTCHAR RGA
ENCODING 9506
SWIDTH 727 0
DWIDTH 16 0
BBX 14 12 1 -3
BITMAP
3ff0
0300
0100
fffc
210c
408c
4044
7e44
01c4
0004
0004
0004
ENDCHAR
STARTCHAR RNGA
ENCODING 9507
SWIDTH 727 0
DWIDTH 16 0
BBX 11 10 3 -1
BITMAP
ffc0
0c00
0400
ffe0
4000
4000
8000
fe00
0180
0040
ENDCHAR
STARTCHAR RJA
ENCODING 9508
SWIDTH 727 0
DWIDTH 16 0
BBX 12 11 3 -2
BITMAP
ffc0
0c00
0400
7ff0
3000
2000
3fc0
4000
7f00
00c0
0020
ENDCHAR
STARTCHAR RNYA
ENCODING 9509
SWIDTH 727 0
DWIDTH 16 0
BBX 14 14 1 -5
BITMAP
7ff0
0300
0100
3fc0
c030
1f88
2044
21f0
1208
0204
0104
0008
0010
0020
ENDCHAR
STARTCHAR RTA
ENCODING 9510
SWIDTH 727 0
DWIDTH 16 0
BBX 12 13 2 -4
BITMAP
7fe0
0600
0200
ffe0
4000
4f80
7060
2010
2010
0020
0040
0080
0100
ENDCHAR
STARTCHAR RDA
ENCODING 9511
SWIDTH 727 0
DWIDTH 16 0
BBX 12 13 2 -4
BITMAP
7fe0
0600
0200
ffe0
1000
2000
4000
7e00
0180
0040
0020
0010
0010
ENDCHAR
STARTCHAR RNA
ENCODING 9512
SWIDTH 727 0
DWIDTH 16 0
BBX 11 11 3 -2
BITMAP
ffc0
0c00
0400
ff80
0800
7c00
8b00
8880
7040
0020
0020
ENDCHAR
STARTCHAR RBA
ENCODING 9513
SWIDTH 727 0
DWIDTH 16 0
BBX 11 10 3 -1
BITMAP
ffc0
0c00
0400
ffe0
2060
4020
4020
fe20
01e0
0020
ENDCHAR
STARTCHAR RMA
ENCODING 9514
SWIDTH 727 0
DWIDTH 16 0
BBX 13 10 2 -1
BITMAP
ff80
1800
0800
ff18
0808
7c08
8388
7c68
0018
0008
ENDCHAR
STARTCHAR RTSA
ENCODING 9515
SWIDTH 727 0
DWIDTH 16 0
BBX 13 9 3 0
BITMAP
ffc0
0c18
0420
7fe0
0400
0bc0
3020
1020
0fc0
ENDCHAR
STARTCHAR RDZA
ENCODING 9516
SWIDTH 727 0
DWIDTH 16 0
BBX 13 9 3 0
BITMAP
ffc0
0c18
0420
7fe0
4000
ff80
8000
ffe0
0010
ENDCHAR
STARTCHAR RGWA
ENCODING 9517
SWIDTH 727 0
DWIDTH 16 0
BBX 14 14 1 -5
BITMAP
3ff0
0300
0100
fffc
210c
408c
4044
7e44
01c4
0004
000c
0014
000c
0004
ENDCHAR
STARTCHAR RTSWA
ENCODING 9518
SWIDTH 727 0
DWIDTH 16 0
BBX 13 14 2 -5
BITMAP
ffc0
0c18
0420
7fe0
0400
0780
1860
6010
1010
0fe0
0180
0280
0180
0080
ENDCHAR
STARTCHAR RKYA
ENCODING 9520
SWIDTH 727 0
DWIDTH 16 0
BBX 15 13 1 -4
BITMAP
3ff0
0300
0100
fff8
0418
1a18
2118
0108
0008
7c3a
23c4
1818
07e0
ENDCHAR
STARTCHAR RGYA
ENCODING 9521
SWIDTH 727 0
DWIDTH 16 0
BBX 16 14 0 -5
BITMAP
1ff8
0180
0080
fffc
210c
408c
4044
7e44
01c4
0004
3e19
11e2
0c0c
03f0
ENDCHAR
STARTCHAR RMYA
ENCODING 9522
SWIDTH 727 0
DWIDTH 16 0
BBX 15 14 1 -5
BITMAP
7e00
1800
0800
fe30
0830
7c10
8710
84d0
7830
0010
7c22
23c4
1818
07e0
ENDCHAR
STARTCHAR LKA
ENCODING 9536
SWIDTH 727 0
DWIDTH 16 0
BBX 14 14 1 -5
BITMAP
7e0c
810c
8104
47e4
001c
7ffc
030c
050c
190c
208c
0084
0044
0004
0004
ENDCHAR
STARTCHAR LGA
ENCODING 9537
SWIDTH 727 0
DWIDTH 16 0
BBX 14 14 1 -5
BITMAP
7e0c
810c
8104
47e4
001c
fffc
210c
408c
4044
7e44
01c4
0004
0004
0004
ENDCHAR
STARTCHAR LNGA
ENCODING 9538
SWIDTH 727 0
DWIDTH 16 0
BBX 14 11 1 -2
BITMAP
7e0c
810c
8104
47e4
001c
3ff8
1000
1000
3f80
0060
0010
ENDCHAR
STARTCHAR LCA
ENCODING 9539
SWIDTH 727 0
DWIDTH 16 0
BBX 14 13 1 -4
BITMAP
7e0c
810c
8104
47e4
001c
3ff0
0600
0200
03c0
0c30
3008
0808
07f0
ENDCHAR
STARTCHAR LJA
ENCODING 9540
SWIDTH 727 0
DWIDTH 16 0
BBX 14 13 1 -4
BITMAP
7e0c
810c
8104
47e4
001c
3ff8
1800
1000
1fe0
2000
3f80
0060
0010
ENDCHAR
STARTCHAR LTA
ENCODING 9541
SWIDTH 727 0
DWIDTH 16 0
BBX 14 14 1 -5
BITMAP
7e0c
810c
8104
47e4
001c
7ff0
2000
27c0
3830
1008
1008
0010
0020
00c0
ENDCHAR
STARTCHAR LDA
ENCODING 9542
SWIDTH 727 0
DWIDTH 16 0
BBX 14 13 1 -4
BITMAP
7e0c
810c
8104
47e4
001c
7ff0
0800
1000
3f00
00c0
0020
0010
0008
ENDCHAR
STARTCHAR LPA
ENCODING 9543
SWIDTH 727 0
DWIDTH 16 0
BBX 14 11 1 -2
BITMAP
7e0c
810c
8104
47e4
001c
3f98
0810
1010
1010
3f90
0070
ENDCHAR
STARTCHAR LBA
ENCODING 9544
SWIDTH 727 0
DWIDTH 16 0
BBX 14 11 1 -2
BITMAP
7e0c
810c
8104
47e4
001c
3ff8
0810
1010
1010
3f90
0070
ENDCHAR
STARTCHAR LHA
ENCODING 9545
SWIDTH 727 0
DWIDTH 16 0
BBX 14 13 1 -4
BITMAP
7e0c
810c
8104
47e4
001c
3fe0
0800
13f0
3408
0c08
0210
0020
0040
ENDCHAR
STARTCHAR SKA
ENCODING 9552
SWIDTH 727 0
DWIDTH 16 0
BBX 13 14 2 -5
BITMAP
7e30
3c30
4310
70d0
0c30
fff8
0618
0a18
3218
4118
0108
0088
0008
0008
ENDCHAR
STARTCHAR SGA
ENCODING 9553
SWIDTH 727 0
DWIDTH 16 0
BBX 13 13 1 -4
BITMAP
3f18
1e18
2188
3868
0618
fff8
2118
4098
4048
7e48
01c8
0008
0008
ENDCHAR
STARTCHAR SNGA
ENCODING 9554
SWIDTH 727 0
DWIDTH 16 0
BBX 11 11 3 -2
BITMAP
fc60
7860
8620
e1a0
1860
ffe0
4000
4000
fe00
0180
0040
ENDCHAR
STARTCHAR SNYA
ENCODING 9555
SWIDTH 727 0
DWIDTH 16 0
BBX 12 14 2 -5
BITMAP
7e30
3c30
4310
70d0
0c30
7e10
8100
87c0
4820
0810
0410
0020
0040
0080
ENDCHAR
STARTCHAR STA
ENCODING 9556
SWIDTH 727 0
DWIDTH 16 0
BBX 12 14 2 -5
BITMAP
7e30
3c30
4310
70d0
0c30
fff0
4000
4f80
7060
2010
2010
0020
0040
0180
ENDCHAR
STARTCHAR SDA
ENCODING 9557
SWIDTH 727 0
DWIDTH 16 0
BBX 12 13 2 -4
BITMAP
7e30
3c30
4310
70d0
0c30
fff0
1000
2000
7e00
0180
0040
0020
0010
ENDCHAR
STARTCHAR SNA
ENCODING 9558
SWIDTH 727 0
DWIDTH 16 0
BBX 12 14 2 -5
BITMAP
7e30
3c30
4310
70d0
0c30
fff0
0800
0800
7e00
8300
8280
7c40
0040
0020
ENDCHAR
STARTCHAR SPA
ENCODING 9559
SWIDTH 727 0
DWIDTH 16 0
BBX 11 11 3 -2
BITMAP
fc60
7860
8620
e1a0
1860
fe60
2060
4020
4020
fe20
01e0
ENDCHAR
STARTCHAR SBA
ENCODING 9560
SWIDTH 727 0
DWIDTH 16 0
BBX 11 11 3 -2
BITMAP
fc60
7860
8620
e1a0
1860
ffe0
2060
4020
4020
fe20
01e0
ENDCHAR
STARTCHAR SMA
ENCODING 9561
SWIDTH 727 0
DWIDTH 16 0
BBX 12 11 2 -2
BITMAP
7e30
3c30
4310
70d0
0c30
ff30
0830
7c10
8390
8470
7810
ENDCHAR
STARTCHAR STSA
ENCODING 9562
SWIDTH 727 0
DWIDTH 16 0
BBX 14 13 2 -4
BITMAP
fcc0
78c0
8640
e14c
18d0
3ff0
0600
0200
03c0
0c30
3008
0808
07f0
ENDCHAR
STARTCHAR SKYA
ENCODING 9568
SWIDTH 727 0
DWIDTH 16 0
BBX 15 15 1 -6
BITMAP
3f18
1e18
2188
3868
0618
fff8
0c18
1218
2218
0108
0008
7c32
23c4
1818
07e0
ENDCHAR
STARTCHAR SGYA
ENCODING 9569
SWIDTH 727 0
DWIDTH 16 0
BBX 15 15 1 -6
BITMAP
3f18
1e18
2188
3868
0618
fff8
2118
4098
4048
7e48
01c8
7c32
23c4
1818
07e0
ENDCHAR
STARTCHAR SPYA
ENCODING 9570
SWIDTH 727 0
DWIDTH 16 0
BBX 14 15 2 -6
BITMAP
7e30
3c30
4310
70d0
0c30
7f30
1030
2010
2010
7f10
00f0
f864
4788
3030
0fc0
ENDCHAR
STARTCHAR SBYA
ENCODING 9571
SWIDTH 727 0
DWIDTH 16 0
BBX 14 15 2 -6
BITMAP
7e30
3c30
4310
70d0
0c30
7ff0
1030
2010
2010
7f10
00f0
f864
4788
3030
0fc0
ENDCHAR
STARTCHAR SMYA
ENCODING 9572
SWIDTH 727 0
DWIDTH 16 0
BBX 14 15 2 -6
BITMAP
7e30
3c30
4310
70d0
0c30
ff30
0830
7c10
8390
7c70
0010
f864
4788
3030
0fc0
ENDCHAR
STARTCHAR SKRA
ENCODING 9584
SWIDTH 727 0
DWIDTH 16 0
BBX 13 15 2 -6
BITMAP
7e30
3c30
4310
70d0
0c30
fff8
0618
0a18
3118
4118
0088
0008
7fc8
0038
0008
ENDCHAR
STARTCHAR SGRA
ENCODING 9585
SWIDTH 727 0
DWIDTH 16 0
BBX 13 15 1 -6
BITMAP
3f18
1e18
2188
3868
0618
fff8
2118
4098
4048
7e48
01c8
0008
7fc8
0038
0008
ENDCHAR
STARTCHAR SNRA
ENCODING 9586
SWIDTH 727 0
DWIDTH 16 0
BBX 12 15 2 -6
BITMAP
7e30
3c30
4310
70d0
0c30
fff0
0400
3f80
4140
4120
3e20
0010
7f90
0070
0010
ENDCHAR
STARTCHAR SPRA
ENCODING 9587
SWIDTH 727 0
DWIDTH 16 0
BBX 11 15 3 -6
BITMAP
fc60
7860
8620
e1a0
1860
fe60
2060
4020
4020
fe20
01e0
0020
ff20
00e0
0020
ENDCHAR
STARTCHAR SBRA
ENCODING 9588
SWIDTH 727 0
DWIDTH 16 0
BBX 11 15 3 -6
BITMAP
fc60
7860
8620
e1a0
1860
ffe0
2060
4020
4020
fe20
01e0
0020
ff20
00e0
0020
ENDCHAR
STARTCHAR SMRA
ENCODING 9589
SWIDTH 727 0
DWIDTH 16 0
BBX 12 15 2 -6
BITMAP
7e30
3c30
4310
70d0
0c30
ff30
0830
7c10
8390
8470
7810
0010
7f90
0070
0010
ENDCHAR
ENDFONT
